<?xml version="1.0" encoding="utf-8"?>
<svg version="1.1" baseProfile="full" xmlns="http://www.w3.org/2000/svg" xmlns:xlink="http://www.w3.org/1999/xlink" xmlns:ev="http://www.w3.org/2001/xml-events" xml:space="preserve" x="0px" y="0px" width="26px" height="20px"  viewBox="0 0 26px 20px" preserveAspectRatio="none" shape-rendering="geometricPrecision"><path xmlns="http://www.w3.org/2000/svg" fill="rgb(116, 71, 106)" d="M87.615,44.865c2.115,0,4.23-1.655,4.23-3.679,0-2.391-1.379-2.575-2.207-2.759C86.971,37.6,85.5,37.139,85.5,34.288c0-2.483,2.575-4.875,5.518-6.622A2.009,2.009,0,0,0,92.4,26.195c0-.736-0.92-0.828-1.471-0.828-1.379,0-10.391,3.495-10.391,11.22C80.534,41,82.833,44.865,87.615,44.865Zm13.886,0c2.115,0,4.322-1.655,4.322-3.679a2.455,2.455,0,0,0-2.391-2.759c-2.575-.828-4.046-1.288-4.046-4.139,0-2.483,2.391-4.875,5.425-6.622a1.983,1.983,0,0,0,1.472-1.471c0-.736-0.92-0.828-1.563-0.828-1.472,0-10.392,3.127-10.392,10.945C94.328,40.818,96.719,44.865,101.5,44.865Z" transform="translate(-80.531 -25.375)"/></svg>