<?xml version="1.0" encoding="utf-8"?>
<svg version="1.1" baseProfile="full" xmlns="http://www.w3.org/2000/svg" xmlns:xlink="http://www.w3.org/1999/xlink" xmlns:ev="http://www.w3.org/2001/xml-events" xml:space="preserve" x="0px" y="0px" width="16px" height="16px"  viewBox="0 0 16px 16px" preserveAspectRatio="none" shape-rendering="geometricPrecision"><path xmlns="http://www.w3.org/2000/svg" fill="rgb(14, 182, 212)" d="M1453.78,248.185l2.83,2.72a1.251,1.251,0,0,1,0,1.815l-0.94.907a1.376,1.376,0,0,1-1.89,0l-0.79-.761-1.33-1.283h0l-0.52-.5-0.86-.823a6.707,6.707,0,0,1-2.62.569,6.419,6.419,0,1,1,6.67-6.414,6.2,6.2,0,0,1-1,3.337l0.45,0.437h0Zm-6.12-7.622a3.851,3.851,0,1,0,4,3.848A3.926,3.926,0,0,0,1447.66,240.563Z" transform="translate(-1441 -238)"/></svg>