<?xml version="1.0" encoding="utf-8"?>
<svg version="1.1" baseProfile="full" xmlns="http://www.w3.org/2000/svg" xmlns:xlink="http://www.w3.org/1999/xlink" xmlns:ev="http://www.w3.org/2001/xml-events" xml:space="preserve" x="0px" y="0px" width="20px" height="20px"  viewBox="0 0 20px 20px" preserveAspectRatio="none" shape-rendering="geometricPrecision"><path xmlns="http://www.w3.org/2000/svg" fill="rgb(14, 182, 212)" d="M1790,54a10,10,0,1,1,10-10A10,10,0,0,1,1790,54Zm0-18.952A8.95,8.95,0,1,0,1798.95,44,8.952,8.952,0,0,0,1790,35.051Zm-3.7,4.739h1.94a0.343,0.343,0,0,1,.36.4,8.769,8.769,0,0,0,.35,1.572,0.582,0.582,0,0,1-.08.645c-0.26.269-.83,0.886-0.83,0.886a5.024,5.024,0,0,0,1.27,1.612,6.132,6.132,0,0,0,1.5,1.088,8.591,8.591,0,0,1,.95-0.927,0.4,0.4,0,0,1,.51,0,6.273,6.273,0,0,0,1.43.322,0.5,0.5,0,0,1,.51.484v1.692s-0.01.645-.47,0.645h-0.36a7.806,7.806,0,0,1-4.7-1.975,8.528,8.528,0,0,1-2.89-5.883A0.471,0.471,0,0,1,1786.3,39.79Z" transform="translate(-1780 -34)"/></svg>